<svg x="16.25" y="13.75" width="0.01" height="0.01" style ="overflow:visible" opacity="1" label="anchorPointContainer">
  <g label="flipped" transform="scale(1 1)">
      <g label="layerRotation" transform="rotate(0)">
          <svg x="-2.5" y="-2.5" width="5" height="5" style ="overflow:visible" opacity="0" label="DotsContainer">
          <animate class="js-yxt-SearchBar-dotsFadeIn" begin="indefinite" attributeName="x" calcMode="spline" dur="0.2s" fill="freeze" keySplines="0 0 1 1;0.42 0 0.58 1" keyTimes="0;0.5;1" values="-2.5;-2.5;-16"/>
          <animate class="js-yxt-SearchBar-dotsFadeIn" begin="indefinite" attributeName="width" calcMode="spline" dur="0.2s" fill="freeze" keySplines="0 0 1 1;0.42 0 0.58 1" keyTimes="0;0.5;1"  values="5;5;32"/>
          <animate class="js-yxt-SearchBar-dotsFadeIn" begin="indefinite" attributeName="opacity" calcMode="spline" dur="0.2s" fill="freeze" keySplines="0 0 1 1;0.42 0 0.58 1;0.42 0 0.58 1" keyTimes="0;0.5;0.75;1"  values="0;0;1;1"/>
          <animate class="js-yxt-SearchBar-dotsFadeOut" begin="indefinite" attributeName="x" calcMode="spline" dur="0.2s" fill="freeze" keySplines="0.42 0 0.58 1;0 0 1 1" keyTimes="0;0.5;1" values="-16;-2.5;-2.5"/>
          <animate class="js-yxt-SearchBar-dotsFadeOut" begin="indefinite" attributeName="width" calcMode="spline" dur="0.2s" fill="freeze" keySplines="0.42 0 0.58 1;0 0 1 1" keyTimes="0;0.5;1"  values="32;5;5"/>
          <animate class="js-yxt-SearchBar-dotsFadeOut" begin="indefinite" attributeName="opacity" calcMode="spline" dur="0.2s" fill="freeze" keySplines="0.42 0 0.58 1;0.42 0 0.58 1;0 0 1 1" keyTimes="0;0.5;0.75;1"  values="1;1;0;0"/>
              <g clip-path="" label="maskPath">
                  <g label="layerShadow" filter="">
                  <!-- Layer: Red -->
                  <svg x="0" y="0" width="0.01" height="0.01" style ="overflow:visible" opacity="1" label="anchorPointContainer">
                      <animate class="js-yxt-SearchBar-dotsFadeIn" begin="indefinite" attributeName="x" calcMode="spline" dur="0.2s" fill="freeze" keySplines="0 0 1 1;0.42 0 0.58 1" keyTimes="0;0.5;1" values="0;0;27"/>
                      <animate class="js-yxt-SearchBar-dotsFadeOut" begin="indefinite" attributeName="x" calcMode="spline" dur="0.2s" fill="freeze" keySplines="0.42 0 0.58 1;0 0 1 1" keyTimes="0;0.5;1" values="27;0;0"/>
                      <g label="flipped" transform="scale(1 1)">
                          <g label="layerRotation" transform="rotate(0)">
                              <svg x="-0" y="-0" width="5" height="5" style ="overflow:visible" opacity="1" label="RedContainer">
                                  <g clip-path="" label="maskPath">
                                      <g label="layerShadow" filter="">
                                      <path id="yxt-SearchBar-dot1" d="M0,2.5c-0,-1.371,1.129,-2.5,2.5,-2.5 0,0,0,0,0,0 1.371,-0,2.5,1.129,2.5,2.5 0,0,0,0,0,0 0,0,0,0,0,0 0,1.371,-1.129,2.5,-2.5,2.5 -0,0,-0,0,-0,0 0,0,0,0,0,0 -1.371,0,-2.5,-1.129,-2.5,-2.5 0,0,0,0,0,0 0,0,0,-0,0,-0zM0,2.5" fill="#D25572" id="red" stroke="#00000000" stroke-dasharray="0" stroke-dashoffset="0" stroke-miterlimit="4" stroke-width="1"/>
                    
                                      </g>
                                  </g>
                              </svg>
                          </g>
                      </g>
                  </svg>
                  <!-- Layer: Yellow -->
                  <svg x="0" y="0" width="0.01" height="0.01" style ="overflow:visible" opacity="1" label="anchorPointContainer">
                      <animate class="js-yxt-SearchBar-dotsFadeIn" begin="indefinite" attributeName="x" calcMode="spline" dur="0.2s" fill="freeze" keySplines="0 0 1 1;0.42 0 0.58 1" keyTimes="0;0.5;1"  values="0;0;18"/>
                      <animate class="js-yxt-SearchBar-dotsFadeOut" begin="indefinite" attributeName="x" calcMode="spline" dur="0.2s" fill="freeze" keySplines="0.42 0 0.58 1;0 0 1 1" keyTimes="0;0.5;1" values="18;0;0"/>
                      <g label="flipped" transform="scale(1 1)">
                          <g label="layerRotation" transform="rotate(0)">
                              <svg x="-0" y="-0" width="5" height="5" style ="overflow:visible" opacity="1" label="YellowContainer">
                                  <g clip-path="" label="maskPath">
                                      <g label="layerShadow" filter="">
                                      <path id="yxt-SearchBar-dot2" d="M0,2.5c-0,-1.371,1.129,-2.5,2.5,-2.5 0,0,0,0,0,0 1.371,-0,2.5,1.129,2.5,2.5 0,0,0,0,0,0 0,0,0,0,0,0 0,1.371,-1.129,2.5,-2.5,2.5 -0,0,-0,0,-0,0 0,0,0,0,0,0 -1.371,0,-2.5,-1.129,-2.5,-2.5 0,0,0,0,0,0 0,0,0,-0,0,-0zM0,2.5" fill="#EEC056" id="yellow" stroke="#00000000" stroke-dasharray="0" stroke-dashoffset="0" stroke-miterlimit="4" stroke-width="1"/>
                    
                                      </g>
                                  </g>
                              </svg>
                          </g>
                      </g>
                  </svg>
                  <!-- Layer: Green -->
                  <svg x="0" y="0" width="0.01" height="0.01" style ="overflow:visible" opacity="1" label="anchorPointContainer">
                      <animate  class="js-yxt-SearchBar-dotsFadeIn" begin="indefinite" attributeName="x" calcMode="spline" dur="0.2s" fill="freeze" keySplines="0 0 1 1;0.42 0 0.58 1" keyTimes="0;0.5;1"  values="0;0;9"/>
                      <animate class="js-yxt-SearchBar-dotsFadeOut" begin="indefinite" attributeName="x" calcMode="spline" dur="0.2s" fill="freeze" keySplines="0.42 0 0.58 1;0 0 1 1" keyTimes="0;0.5;1" values="9;0;0"/>
                      <g label="flipped" transform="scale(1 1)">
                          <g label="layerRotation" transform="rotate(0)">
                              <svg x="-0" y="-0" width="5" height="5" style ="overflow:visible" opacity="1" label="GreenContainer">
                                  <g clip-path="" label="maskPath">
                                      <g label="layerShadow" filter="">
                                      <path id="yxt-SearchBar-dot3" d="M0,2.5c-0,-1.371,1.129,-2.5,2.5,-2.5 0,0,0,0,0,0 1.371,-0,2.5,1.129,2.5,2.5 0,0,0,0,0,0 0,0,0,0,0,0 0,1.371,-1.129,2.5,-2.5,2.5 -0,0,-0,0,-0,0 0,0,0,0,0,0 -1.371,0,-2.5,-1.129,-2.5,-2.5 0,0,0,0,0,0 0,0,0,-0,0,-0zM0,2.5" fill="#86AB4F" id="green" stroke="#00000000" stroke-dasharray="0" stroke-dashoffset="0" stroke-miterlimit="4" stroke-width="1"/>
                    
                                      </g>
                                  </g>
                              </svg>
                          </g>
                      </g>
                  </svg>
                  <!-- Layer: Blue -->
                  <svg x="0" y="0" width="0.01" height="0.01" style ="overflow:visible" opacity="1" label="anchorPointContainer">
                      <g label="flipped" transform="scale(1 1)">
                          <g label="layerRotation" transform="rotate(0)">
                              <svg x="-0" y="-0" width="5" height="5" style ="overflow:visible" opacity="1" label="BlueContainer">
                                  <g clip-path="" label="maskPath">
                                      <g label="layerShadow" filter="">
                                      <path id="yxt-SearchBar-dot4" d="M0,2.5c-0,-1.371,1.129,-2.5,2.5,-2.5 0,0,0,0,0,0 1.371,-0,2.5,1.129,2.5,2.5 0,0,0,0,0,0 0,0,0,0,0,0 0,1.371,-1.129,2.5,-2.5,2.5 -0,0,-0,0,-0,0 0,0,0,0,0,0 -1.371,0,-2.5,-1.129,-2.5,-2.5 0,0,0,0,0,0 0,0,0,-0,0,-0zM0,2.5" fill="#148A89" id="blue" stroke="#00000000" stroke-dasharray="0" stroke-dashoffset="0" stroke-miterlimit="4" stroke-width="1"/>
                    
                                      </g>
                                  </g>
                              </svg>
                          </g>
                      </g>
                  </svg>
                  <rect fill="none" height="100%" rx="0" stroke="#00000000" stroke-width="1" width="100%" x="0" y="0">
                      <animate class="js-yxt-SearchBar-dotsFadeIn" begin="indefinite" attributeName="width" calcMode="spline" dur="0.2s" fill="freeze" keySplines="0 0 1 1;0.42 0 0.58 1" keyTimes="0;0.5;1"  values="5;5;32"/>
                      <animate class="js-yxt-SearchBar-dotsFadeOut" begin="indefinite" attributeName="width" calcMode="spline" dur="0.2s" fill="freeze" keySplines="0.42 0 0.58 1;0 0 1 1" keyTimes="0;0.5;1" values="32;5;5"/>
                  </rect>
                  </g>
              </g>
          </svg>
      </g>
  </g>
</svg>